<svg xmlns="http://www.w3.org/2000/svg" width="800" height="400">
  <path fill="none" stroke="steelblue" stroke-width="2" d="M 0 236.1313983376356 L 0 236.1313983376356 L 1 7.3697764380474124 L 2 -46.411169549596266 L 3 -43.09048821686913 L 4 23.98968267733333 L 5 -168.23724931865394 L 6 -55.566058375813604 L 7 -27.724827448009005 L 8 85.33304888488082 L 9 106.8745860731069 L 10 -26.966536417988195 L 11 229.68165326093043 L 12 -35.76123005516332 L 13 -125.73667519384345 L 14 -138.4266280302608 L 15 -55.85832518341763 L 16 252.40292267147495 L 17 -17.909879389757712 L 18 16.926560515678393 L 19 313.1965738979391 L 20 90.28458562505482 L 21 96.92824957548507 L 22 196.63488662800742 L 23 98.57892685742111 L 24 -172.033192648746 L 25 5.592656681693262 L 26 -77.54104176729675 L 27 64.7716403342891 L 28 83.62782901960868 L 29 -98.61605028928646 L 30 147.216472185331 L 31 207.1464508915024 L 32 74.40042721795838 L 33 9.921722989290533 L 34 189.91033619598576 L 35 101.97822193454715 L 36 -57.721088401838685 L 37 68.71309165345059 L 38 -34.535431625098674 L 39 -110.94805158025902 L 40 -192.7564399234115 L 41 -28.924491923957643 L 42 -116.76785343370226 L 43 77.12696739292593 L 44 142.0920654880697 L 45 245.57946212652348 L 46 2.142961829375529 L 47 -35.47784355909851 L 48 108.10466112174143 L 49 210.40889621519258 L 50 -76.27964031520223 L 51 255.3937994490499 L 52 303.49921624253926 L 53 95.65758500914933 L 54 -82.4531817487535 L 55 164.8253253422223 L 56 -31.343114614475105 L 57 117.3976095405199 L 58 131.15636192896093 L 59 -92.29937957948584 L 60 225.31956005311562 L 61 79.05730981207506 L 62 -140.25935449184541 L 63 150.78657784595245 L 64 77.83785113972532 L 65 6.089395923589048 L 66 306.76832997668157 L 67 25.826901291647985 L 68 52.58496013045812 L 69 219.29324930376825 L 70 -100.30039789903672 L 71 119.0393507147076 L 72 -243.013593047293 L 73 171.41322152030008 L 74 163.1627368087926 L 75 -82.51536707817763 L 76 28.04940203181995 L 77 127.24888021381142 L 78 -59.87242846760783 L 79 -21.780335490822747 L 80 160.54022035699475 L 81 118.93752679935494 L 82 247.70142228695732 L 83 -153.41605286384012 L 84 197.88421896627435 L 85 189.15408725199399 L 86 -126.41710947100562 L 87 250.28935393614205 L 88 138.56274812458736 L 89 -22.39095642341366 L 90 265.27978842322375 L 91 263.0111661454834 L 92 165.91877033175172 L 93 130.3943054394705 L 94 -23.20923694325097 L 95 -127.33018781755946 L 96 46.19542741864144 L 97 -134.00884752247126 L 98 -54.462925580242775 L 99 -64.85931113423457 L 100 137.99375788696864 L 101 -94.31030166678504 L 102 64.77510965452774 L 103 -57.06761146064037 L 104 129.80692965666273 L 105 -125.12801086010974 L 106 -71.81790039824374 L 107 77.57786427891138 L 108 147.16500411898798 L 109 269.6686117003521 L 110 187.56908229664657 L 111 124.57061371853025 L 112 35.56910017568138 L 113 62.205230669597405 L 114 139.05237935372097 L 115 13.104361949141609 L 116 57.772908329568764 L 117 45.85905539724924 L 118 -145.89828458367452 L 119 24.14348644403848 L 120 115.49356575129913 L 121 27.5036703820197 L 122 -201.28170458337667 L 123 20.581099073839276 L 124 -100.14479612405593 L 125 -27.94677945306219 L 126 40.99416334357055 L 127 -62.51833472568308 L 128 175.62238488691372 L 129 22.62656006939288 L 130 30.027977636246355 L 131 156.6049604585518 L 132 -69.79093146092283 L 133 231.91256107743283 L 134 211.92626764143324 L 135 -13.275477659628633 L 136 -36.04725291080036 L 137 -109.95476101724682 L 138 93.66760078906137 L 139 24.78868440934012 L 140 26.87894865200196 L 141 169.27952806448673 L 142 -28.605366561611238 L 143 130.13316830734547 L 144 -31.326727895093203 L 145 -119.22889942577015 L 146 147.34745044927197 L 147 -36.81089337606261 L 148 53.81545437871071 L 149 209.4428743871796 L 150 -145.13273318774912 L 151 292.03378451981126 L 152 245.6784076581844 L 153 82.6648636180727 L 154 -99.35842521298416 L 155 47.92883157668582 L 156 -12.454172553592107 L 157 -201.85060115330066 L 158 230.86024529249102 L 159 30.447693772209227 L 160 124.08528366203373 L 161 -49.93041053186554 L 162 58.86538483697446 L 163 29.295472435309676 L 164 25.535454963034834 L 165 151.35026039193687 L 166 147.26848758867632 L 167 -3.0870263534765567 L 168 -48.92766528423044 L 169 -66.63034138221153 L 170 -113.70560421776143 L 171 -123.57518381791395 L 172 70.61568544074069 L 173 67.8367382763031 L 174 -66.28650398457964 L 175 -104.2652151001876 L 176 44.55438085688396 L 177 87.44898322129713 L 178 -49.15198958749783 L 179 -249.02380559634457 L 180 -58.609927909995754 L 181 103.34831854227743 L 182 237.0374181168815 L 183 146.29629869827764 L 184 -170.7983435125496 L 185 7.002146272349238 L 186 145.02113966817444 L 187 121.98092618173601 L 188 -233.06631204471634 L 189 -110.27645051746747 L 190 209.50593336848894 L 191 -60.93591252046823 L 192 199.95281921013455 L 193 44.53025011549308 L 194 -170.56538197034226 L 195 -309.4294504863367 L 196 123.06948931621524 L 197 14.138068691907867 L 198 84.51829026079497 L 199 131.67367433329952 L 200 -98.99409950303787 L 201 -169.1661608197231 L 202 90.69259543017517 L 203 106.15293657401318 L 204 -162.0733453630829 L 205 233.7730823066825 L 206 192.49552218634173 L 207 61.051618799843084 L 208 -16.81951898989372 L 209 181.84111815995968 L 210 29.853239884850083 L 211 89.23937422942812 L 212 -18.776918309018818 L 213 193.50421060037536 L 214 183.17896772087465 L 215 -64.90651176778216 L 216 85.67440490617238 L 217 9.76557782570913 L 218 8.957630446952217 L 219 36.77390308625099 L 220 -128.01020545583637 L 221 243.94120448523555 L 222 3.480585064510534 L 223 -63.47588759696449 L 224 -71.42061864996603 L 225 69.63995507819612 L 226 86.39625846697083 L 227 -116.49130908543114 L 228 -199.43483112083138 L 229 123.27426453310214 L 230 -98.80054102707761 L 231 -47.46505048063917 L 232 -11.094340434238674 L 233 -38.55372111505365 L 234 -46.316926522150915 L 235 150.5847199543733 L 236 75.52560024258946 L 237 -179.16514210987853 L 238 103.78850074288326 L 239 207.64751822287195 L 240 84.56088105690942 L 241 -92.15690538558981 L 242 -49.959969112997996 L 243 -117.97011028265993 L 244 128.46271456649856 L 245 89.64123375355311 L 246 17.862107945900224 L 247 178.0803133819912 L 248 142.8705021860533 L 249 -8.971502662402614 L 250 -65.65379898450115 L 251 240.69727234244866 L 252 -126.78258588308056 L 253 -11.572751472711113 L 254 -108.42570647749181 L 255 -11.817419543939755 L 256 -134.10228525409772 L 257 133.47472952289243 L 258 94.99541997970698 L 259 -51.17519755410271 L 260 84.4780844430059 L 261 -65.69333326744331 L 262 87.03755663214781 L 263 -84.25273782564267 L 264 66.86047882661035 L 265 162.7610338755224 L 266 -146.9945504084446 L 267 -19.49429474644636 L 268 16.87208541344122 L 269 335.6381852625583 L 270 245.85567113300556 L 271 -220.87365543937133 L 272 203.7063939444734 L 273 137.83099095876298 L 274 64.03593936874984 L 275 44.992364599045736 L 276 184.0580569555945 L 277 119.05080983167944 L 278 -136.76797251964499 L 279 291.246345244624 L 280 83.6687742427799 L 281 245.3555875085995 L 282 -17.508359926580955 L 283 -52.01379726261068 L 284 224.46538414477237 L 285 190.60224019296146 L 286 132.85342636259088 L 287 318.8476267871716 L 288 136.24971418752932 L 289 66.41906565926664 L 290 -111.16759433270997 L 291 -17.938114590260813 L 292 -221.45711571055196 L 293 93.23965818163977 L 294 -115.27931386541427 L 295 206.55999096305501 L 296 -41.91997848760285 L 297 186.45259046790343 L 298 164.99033727959994 L 299 -87.52841352409041 L 300 -137.47952396097725 L 301 -68.58048353775906 L 302 65.56574822233296 L 303 1.1139777493916163 L 304 107.46189151094717 L 305 151.51301769393248 L 306 154.8375854871887 L 307 97.59227181717992 L 308 64.53382305710406 L 309 15.843567003876924 L 310 -106.00840498403859 L 311 201.71610484216816 L 312 34.82075175762751 L 313 140.70784968556694 L 314 -35.05844682168884 L 315 -12.326404472182462 L 316 245.54151159388314 L 317 -181.35099161000906 L 318 81.05624766870521 L 319 -46.23144881786997 L 320 114.94469779514226 L 321 35.196806056806786 L 322 -4.760523804364108 L 323 65.9891672503962 L 324 -171.90883400613052 L 325 -106.72751584758514 L 326 -68.42540769387594 L 327 181.4105272967393 L 328 114.13591079400065 L 329 180.17006595763954 L 330 92.68772245966412 L 331 -158.06530132405527 L 332 -33.84540282425704 L 333 111.17310996264246 L 334 54.65864212591345 L 335 -110.0274912758361 L 336 80.19475150110853 L 337 115.20131810384117 L 338 -9.878071360860421 L 339 276.75094875704764 L 340 60.379516700586635 L 341 141.45131991302995 L 342 -40.69042837799744 L 343 -2.20053692774506 L 344 75.41262595969489 L 345 -164.1474542122374 L 346 -106.09275224303693 L 347 99.62226368045317 L 348 105.26430281082106 L 349 99.0023973249304 L 350 122.30881507333784 L 351 4.167679810967307 L 352 -201.7656699714938 L 353 12.354910198094563 L 354 104.06721702454819 L 355 -186.22969905773024 L 356 -171.17313872310655 L 357 -145.70067571273745 L 358 276.86186014254474 L 359 41.755168701713224 L 360 142.06943912947696 L 361 -187.4392029486289 L 362 239.60700531138374 L 363 -92.8568853237377 L 364 72.97155174444404 L 365 159.39533192059906 L 366 -147.4482077428333 L 367 42.62493691604834 L 368 1.3975987541142276 L 369 200.15279777683276 L 370 -26.76844386957755 L 371 61.913435817470955 L 372 201.97415673406718 L 373 9.565032038256495 L 374 42.434384763595155 L 375 152.96254826419516 L 376 -262.64458360264985 L 377 209.7131720864291 L 378 146.13500329768976 L 379 -109.48928904055545 L 380 -186.0043808408792 L 381 -161.68392388843418 L 382 -124.70998820173483 L 383 36.86621539262981 L 384 -84.7098261482311 L 385 152.9650367363953 L 386 36.17728121712337 L 387 -39.117095374902405 L 388 63.42102842899854 L 389 -161.8478753014786 L 390 -17.849120176894246 L 391 73.55747996165987 L 392 175.190494823616 L 393 -50.61742286749446 L 394 24.9930026273326 L 395 140.9303759483424 L 396 57.28457376149916 L 397 58.32672366647214 L 398 20.54651093091797 L 399 316.0363083872848 L 400 68.2665432455942 L 401 106.05064980486875 L 402 116.18826136345865 L 403 -73.69667356852197 L 404 202.52487434438848 L 405 238.44145267470964 L 406 118.76975763685584 L 407 163.1033906027611 L 408 -14.9914244366775 L 409 213.79070877135948 L 410 60.59657118584275 L 411 40.47242901083634 L 412 225.69899709937778 L 413 200.433535501764 L 414 98.59776307472018 L 415 203.09542022707797 L 416 141.4929694455887 L 417 229.68937791513358 L 418 -100.84807085448818 L 419 7.065905250586887 L 420 -26.111458784361336 L 421 49.105285498244605 L 422 109.1217842657704 L 423 -18.80202346363572 L 424 94.14323120480454 L 425 110.4197426209539 L 426 -4.81160894796603 L 427 155.60709039248033 L 428 57.73524112710467 L 429 -83.49033271893677 L 430 76.43602018999236 L 431 -218.54498135067186 L 432 48.431161152499435 L 433 -93.10131498702516 L 434 61.27301819952603 L 435 -59.38505861974368 L 436 156.57320784106764 L 437 -74.99532703287288 L 438 -50.915492421508745 L 439 200.73970656688945 L 440 66.84541881959883 L 441 -43.41593830672046 L 442 146.42915620373734 L 443 6.190531057991512 L 444 66.86477293140213 L 445 -40.15308836906787 L 446 -63.28722697366296 L 447 -162.9174529044508 L 448 152.78248434496507 L 449 -67.54856063646417 L 450 136.4615024978817 L 451 36.65004215072007 L 452 229.00926391333988 L 453 55.03685324746863 L 454 167.64954880330802 L 455 214.860432071813 L 456 -91.15911108636162 L 457 -144.8075494334143 L 458 -12.404906674849915 L 459 -304.7319861832074 L 460 224.60388404323416 L 461 58.96453577325265 L 462 70.3760991011379 L 463 44.90678104123354 L 464 165.7343181782789 L 465 101.40983701892753 L 466 27.85084029642311 L 467 173.80242042640293 L 468 -30.280791010508405 L 469 43.02082795861878 L 470 171.63170591250224 L 471 69.97393605482024 L 472 -6.156028386614129 L 473 23.93474065961308 L 474 3.1358464467768368 L 475 68.14472316717759 L 476 146.06834907218476 L 477 380.00000000000006 L 478 196.44799290711038 L 479 46.893245606727405 L 480 165.10613671229854 L 481 106.47587658309608 L 482 186.95639707462217 L 483 174.45699642952715 L 484 194.04392249989272 L 485 134.87024007388547 L 486 84.30120835999094 L 487 29.650845421653976 L 488 125.59510435357623 L 489 85.34232743347177 L 490 187.57204204183438 L 491 162.78492410453848 L 492 104.39124852338924 L 493 -86.76568360465758 L 494 38.04557838682385 L 495 -70.27827128065027 L 496 87.5766025573555 L 497 138.39612998093818 L 498 48.80849472924573 L 499 -16.141803536251597 L 500 242.37753608441432 L 501 -54.881026431531126 L 502 -105.31973737888065 L 503 -200.04115515462757 L 504 -191.19592035220427 L 505 -229.5528693185593 L 506 -141.70753753724708 L 507 230.96483276136968 L 508 101.72813911015906 L 509 50.037637309603056 L 510 -126.71406642661205 L 511 -35.57087309593182 L 512 -119.52892411676521 L 513 167.8127711749912 L 514 157.54446340310622 L 515 103.73475694539371 L 516 -26.620821654940407 L 517 -85.5614906937694 L 518 110.01796271716645 L 519 167.8847434563666 L 520 293.47048398564937 L 521 -77.56848636810223 L 522 106.84169109223113 L 523 262.156634029322 L 524 -242.81736072047244 L 525 -47.18215216805624 L 526 -30.464936611211233 L 527 -141.87334671267323 L 528 124.61622960396058 L 529 172.5429844543122 L 530 -95.7304360144872 L 531 -191.0046214190854 L 532 -69.16388974949021 L 533 137.03366099480087 L 534 -107.56387710749028 L 535 -116.75406763227133 L 536 -155.67609340216916 L 537 312.88275646728727 L 538 119.6721488680041 L 539 255.7031021588241 L 540 201.02563822587246 L 541 65.0649091100882 L 542 97.68321173616738 L 543 -195.58992002676192 L 544 148.2300012976691 L 545 75.48605449806304 L 546 -80.83570852071003 L 547 -293.32747883079554 L 548 -187.94985679652945 L 549 252.52014620726843 L 550 122.80683623951612 L 551 101.3486610090939 L 552 -13.820166738059264 L 553 33.48051941150467 L 554 7.047157971652995 L 555 121.54207790211915 L 556 -61.566968164650405 L 557 121.61816047967345 L 558 249.93413278574536 L 559 -64.29756965723179 L 560 100.15948930132612 L 561 21.485855331283954 L 562 -67.2617903873191 L 563 140.38066033473666 L 564 255.32647467822832 L 565 61.503820075771785 L 566 -47.90898797366109 L 567 220.90661000053004 L 568 -172.488887495353 L 569 -124.99106916312412 L 570 -1.5208299522495168 L 571 180.024189908754 L 572 87.0875442609373 L 573 -62.61067860173517 L 574 128.43881519288638 L 575 -9.457435180434134 L 576 -121.35603021784785 L 577 -216.18669837113515 L 578 231.90833908486627 L 579 35.45886488177006 L 580 -39.1514139460474 L 581 -56.94031781287761 L 582 37.28567907894468 L 583 -134.9390520060631 L 584 -14.904004656695184 L 585 -63.81152930890756 L 586 55.62671198722575 L 587 -85.4571130448392 L 588 35.22930519903343 L 589 78.86833976038633 L 590 15.137319258976067 L 591 -109.38813194361533 L 592 85.77033576803507 L 593 53.59828858908588 L 594 94.93187682616926 L 595 175.85977620245575 L 596 320.1587296452865 L 597 32.60473558608719 L 598 -63.04044390669104 L 599 126.91052632462986 L 600 307.517266881547 L 601 293.88169417833996 L 602 58.575843219404405 L 603 -43.523744776964556 L 604 56.30614735652664 L 605 177.851812120989 L 606 93.66085910020604 L 607 189.51294893829666 L 608 108.31859611398416 L 609 80.36850497093148 L 610 -142.10350059319103 L 611 -105.51063536471766 L 612 1.5676387646646293 L 613 -37.0116661579152 L 614 193.91767330767576 L 615 -96.85957331147281 L 616 -179.8212247069052 L 617 65.88983436629137 L 618 205.3036948655394 L 619 -30.11998069272747 L 620 -29.36015046851225 L 621 252.29321980761287 L 622 131.8084685546568 L 623 114.71950962685261 L 624 -20.815480930796014 L 625 -229.43593191429238 L 626 46.90737395996905 L 627 -40.288542465714585 L 628 -201.29205226424838 L 629 -17.24072834403942 L 630 -38.478816725413644 L 631 -251.53267095929553 L 632 32.543709952693945 L 633 -79.95466636196947 L 634 96.05723607936804 L 635 -0.6554888346327163 L 636 119.36267612281456 L 637 -14.29869507754757 L 638 214.6025387348442 L 639 240.4938380664119 L 640 118.33668955763731 L 641 -219.4272374525658 L 642 51.249388606160636 L 643 173.9563438489658 L 644 27.6484794777551 L 645 171.1508998750915 L 646 170.38111451634376 L 647 -105.60125271986642 L 648 257.00179147452616 L 649 -14.984792631626497 L 650 267.8880423585559 L 651 138.75806530375118 L 652 279.5757108782724 L 653 -186.10286102111903 L 654 63.21464208833322 L 655 21.8321118458589 L 656 -41.87939183640569 L 657 -139.0779888803664 L 658 -141.79434648984636 L 659 -224.51523528057044 L 660 -146.84770149794954 L 661 -89.66898078409821 L 662 130.07737464821508 L 663 13.339613838509967 L 664 -151.3777886653768 L 665 193.73491338635927 L 666 123.53286964249018 L 667 17.969445687362263 L 668 78.92536712868753 L 669 129.71767989730975 L 670 95.85299110752604 L 671 -52.972024786798194 L 672 15.770482830305149 L 673 -157.75874176338212 L 674 59.32804387588026 L 675 177.6117879365772 L 676 22.044808100076253 L 677 86.6722915814877 L 678 183.0955726100384 L 679 143.35305740964245 L 680 -127.54350825035311 L 681 151.9650651463334 L 682 80.57634072911993 L 683 142.94883222924716 L 684 111.64469320783628 L 685 -107.83715901013022 L 686 150.98187351347707 L 687 -142.88883763672877 L 688 -110.16649099892246 L 689 -55.45791581608948 L 690 -36.674558955035494 L 691 -60.28861608046074 L 692 -299.78484444024264 L 693 -6.9177958076046915 L 694 89.89333971130056 L 695 10.811982411673949 L 696 51.38074520471542 L 697 18.945517528029647 L 698 -160.0964188547783 L 699 -9.96750168362032 L 700 136.64122804119233 L 701 -93.27223971932736 L 702 -177.1112871832703 L 703 58.733302329820894 L 704 -36.918924319728184 L 705 -143.19957677850667 L 706 121.43435283600682 L 707 46.34713592930157 L 708 274.5050494014155 L 709 -52.26407820242995 L 710 107.65786416320566 L 711 52.107713204613624 L 712 37.58705186380989 L 713 112.61978735093844 L 714 27.9287633657687 L 715 84.99601797341116 L 716 161.11834172611904 L 717 93.94485939578972 L 718 20.844924956358252 L 719 154.91036191298645 L 720 168.11621609712884 L 721 91.49828019133477 L 722 -31.637713268466207 L 723 -98.04645592685449 L 724 -156.27654052072947 L 725 258.28864946681125 L 726 259.10372846497097 L 727 144.86585083842647 L 728 186.5708710222172 L 729 281.0153885003556 L 730 7.48615459877064 L 731 58.05646709795797 L 732 6.246509116018552 L 733 -96.71674751902432 L 734 136.12981704970315 L 735 -11.298804156197507 L 736 23.831555394449712 L 737 215.53825471635307 L 738 30.33083976146496 L 739 290.41595020147 L 740 -37.42171937884553 L 741 170.09664775083604 L 742 151.3152014762073 L 743 22.181524348188404 L 744 166.730541176696 L 745 268.1123687164873 L 746 29.800756632332792 L 747 -54.27105614042682 L 748 329.9497326305779 L 749 12.122397263252836 L 750 -174.97709687077577 L 751 35.35596113221691 L 752 28.361907739323293 L 753 -58.55025852231897 L 754 -241.79878405495063 L 755 16.057082370354895 L 756 -76.31331037097762 L 757 -45.66985046277489 L 758 25.069613563180337 L 759 88.23918805068449 L 760 329.0770036110691 L 761 -32.79172910469178 L 762 138.54877669455178 L 763 30.92582057433672 L 764 128.86462572346682 L 765 62.60173591382071 L 766 360.3130863442515 L 767 3.4121617331945107 L 768 107.1130677023771 L 769 135.70104743960906 L 770 -4.123568842479428 L 771 -122.66952345353837 L 772 164.14850806704837 L 773 18.81852227578447 L 774 237.3381885053363 L 775 -34.35124493813582 L 776 18.893944290442562 L 777 217.3587362201776 L 778 9.552826003515033 L 779 13.998326278233053 L 780 363.5218975235977 L 781 210.47216330979168 L 782 28.981895970603816 L 783 40.00618863178531 L 784 186.7393357893239 L 785 283.1429437298219 L 786 141.10367475201488 L 787 -71.94980120077206 L 788 255.01848408398718 L 789 146.78597839498002 L 790 13.121661454120623 L 791 191.191645161594 L 792 31.134584385748294 L 793 -59.294619129684925 L 794 30.015070886765862 L 795 -2.4308492010756617 L 796 27.586747987594148 L 797 -73.95340233245845 L 798 -87.64504348436192 L 799 -126.33418231080712" />
</svg>
